<?xml version="1.0" encoding="UTF-8" standalone="no"?>
<!-- Created with Inkscape (http://www.inkscape.org/) -->

<svg
   xmlns:dc="http://purl.org/dc/elements/1.1/"
   xmlns:cc="http://creativecommons.org/ns#"
   xmlns:rdf="http://www.w3.org/1999/02/22-rdf-syntax-ns#"
   xmlns:svg="http://www.w3.org/2000/svg"
   xmlns="http://www.w3.org/2000/svg"
   version="1.1"
   width="200"
   height="103.81615"
   viewBox="-0.7 -0.123 200 103.81615"
   id="svg2"
   xml:space="preserve"><metadata
   id="metadata20"><rdf:RDF><cc:Work
       rdf:about=""><dc:format>image/svg+xml</dc:format><dc:type
         rdf:resource="http://purl.org/dc/dcmitype/StillImage" /><dc:title></dc:title></cc:Work></rdf:RDF></metadata>
<defs
   id="defs4">
</defs>





<g
   transform="matrix(3.6623329,0,0,3.6623329,-0.7,-0.123)"
   id="g2997"><path
     d="m 36.941,10.88 c -0.342,-0.256 -0.88,-0.41 -1.402,-0.402 -0.567,0.008 -1.109,0.19 -1.486,0.491 v -3.58 h -1.771 v 11.675 h 1.771 V 12.97 c 0,-0.425 0.356,-0.893 1.016,-0.921 0.294,-0.013 0.702,0.115 0.908,0.424 0.22,0.327 0.207,0.762 0.207,1.237 l -0.002,5.354 h 1.771 V 13.643 C 37.952,12.044 37.744,11.475 36.941,10.88"
     id="path6"
     style="fill:#007ac2" /><path
     d="m 22.537,14.889 c 0,1.142 -0.036,1.464 -0.045,1.563 -0.062,0.634 -0.332,1.305 -1.07,1.305 -0.737,0 -1.036,-0.717 -1.068,-1.335 -0.002,-0.004 -0.046,-0.391 -0.046,-1.533 0,-1.145 0.045,-1.621 0.046,-1.625 0.009,-0.645 0.343,-1.29 1.068,-1.29 0.725,0 1.06,0.645 1.069,1.283 0.001,0.011 0.046,0.487 0.046,1.632 m 1.713,-1.378 c -0.251,-2.496 -1.668,-3.032 -2.831,-3.032 -1.648,0 -2.651,1.049 -2.832,3.028 -0.016,0.158 -0.04,0.449 -0.049,1.382 -0.006,0.679 0.037,1.235 0.046,1.376 0.112,1.848 1.174,2.987 2.835,2.987 1.662,0 2.72,-1.158 2.836,-2.987 0.008,-0.13 0.046,-0.697 0.046,-1.376 0,-0.308 -0.029,-1.144 -0.051,-1.378 z"
     id="path8"
     style="fill:#007ac2" /><path
     d="m 40.908,13.837 c 0.013,-0.386 0.013,-0.468 0.021,-0.58 0.05,-0.699 0.362,-1.278 1.079,-1.283 0.849,-0.006 1.049,0.826 1.079,1.287 0.015,0.242 0.034,0.404 0.031,0.576 h -2.21 m 2.187,2.34 c 0,0 0.003,0.13 -0.017,0.288 -0.05,0.412 -0.212,1.292 -1.074,1.292 -0.734,0 -1.017,-0.667 -1.066,-1.332 -0.009,-0.189 -0.044,-0.4 -0.042,-1.117 h 3.949 c 0,0 0.007,-0.588 -0.004,-0.941 -0.006,-0.139 -0.013,-0.37 -0.046,-0.857 -0.054,-0.749 -0.334,-1.567 -0.763,-2.096 -0.496,-0.612 -1.197,-0.935 -2.028,-0.935 -1.595,0 -2.592,1.039 -2.788,3.029 -0.018,0.178 -0.047,0.427 -0.047,1.381 0,0.679 0.038,1.247 0.045,1.376 0.107,1.818 1.182,2.987 2.79,2.987 1.604,0 2.679,-1.139 2.791,-3.075 h -1.7 z"
     id="path10"
     style="fill:#007ac2" /><path
     d="m 12.937,1.43 h 28.78 L 52.722,14.307 41.72,27.007 H 12.935 L 1.89,14.264 12.937,1.43 M 42.413,0 H 12.242 L 0,14.219 12.243,28.347 H 42.412 L 54.61,14.265 42.413,0 z"
     id="path12"
     style="fill:#007ac2" /><path
     d="m 13.293,8.974 h 0.838 c 0.911,0 1.405,0.483 1.427,1.346 0.002,0.063 0.009,0.136 0.009,0.27 0,0.157 -0.002,0.213 -0.008,0.273 -0.051,0.513 -0.276,1.407 -1.343,1.407 H 13.293 V 8.974 m 4.194,9.367 c 0,0.002 -0.182,-2.866 -0.182,-2.866 -0.079,-1.282 -0.413,-2.038 -1.076,-2.425 0.479,-0.288 1.099,-1.001 1.092,-2.489 C 17.313,8.294 15.906,7.499 14.25,7.481 h -2.706 v 11.583 h 1.748 l 10e-4,-5.299 h 0.973 c 0.563,0 1.197,0.492 1.293,1.875 l 0.182,2.712 c 0.015,0.384 0.088,0.713 0.088,0.713 h 1.749 c -10e-4,0 -0.076,-0.32 -0.091,-0.724 z"
     id="path14"
     style="fill:#007ac2" /><path
     d="m 29.423,16.097 c -0.007,0.128 -0.016,0.243 -0.022,0.325 -0.05,0.647 -0.277,1.335 -1.068,1.335 -0.738,0 -1.029,-0.746 -1.083,-1.295 -0.032,-0.334 -0.024,-0.592 -0.031,-1.573 -0.008,-1.145 0.029,-1.439 0.045,-1.625 0.063,-0.724 0.343,-1.285 1.069,-1.29 0.746,-0.005 1.06,0.645 1.068,1.283 0,0.007 0.016,0.161 0.027,0.5 h 1.752 c -0.006,-0.117 -0.011,-0.214 -0.015,-0.271 -0.199,-2.421 -1.673,-3.007 -2.836,-3.007 -1.648,0 -2.652,1.049 -2.833,3.028 -0.016,0.158 -0.04,0.449 -0.048,1.382 -0.008,0.679 0.035,1.235 0.045,1.376 0.113,1.848 1.174,2.983 2.836,2.987 1.721,0.006 2.671,-1.044 2.836,-2.987 0.005,-0.071 0.015,-0.12 0.01,-0.168 h -1.752"
     id="path16"
     style="fill:#007ac2" /></g>
</svg>